# 3ds Max Wavefront OBJ Exporter v0.97b - (c)2007 guruware
# File Created: 22.09.2018 13:36:11

mtllib Piston_Stationary.mtl

#
# object Piston_Stationary
#

v  6.3006 0.0000 100.1459
v  6.3006 0.0000 -0.0000
v  45.4746 0.0000 -0.0000
v  45.4746 0.0000 100.1459
v  6.3006 100.0000 100.1459
v  45.4746 100.0000 100.1459
v  45.4746 100.0000 0.0000
v  6.3006 100.0000 -0.0000
v  0.0000 3.0031 3.0031
v  0.0000 3.0031 97.1428
v  0.0000 96.9969 97.1428
v  0.0000 96.9969 3.0031
v  50.0000 3.5355 3.5355
v  50.0000 3.5355 96.6104
v  50.0000 96.4645 96.6104
v  50.0000 96.4645 3.5356
# 16 vertices

vn -0.2609 -0.6826 0.6826
vn -0.2609 -0.6826 -0.6826
vn 0.3501 -0.6624 -0.6624
vn 0.3501 -0.6624 0.6624
vn -0.2609 0.6826 0.6826
vn 0.3501 0.6624 0.6624
vn 0.3501 0.6624 -0.6624
vn -0.2609 0.6826 -0.6826
vn -0.7918 -0.4319 -0.4319
vn -0.7918 -0.4319 0.4319
vn -0.7918 0.4319 0.4319
vn -0.7918 0.4319 -0.4319
vn 0.8705 -0.3480 -0.3480
vn 0.8705 -0.3480 0.3480
vn 0.8705 0.3480 0.3480
vn 0.8705 0.3480 -0.3480
# 16 vertex normals

vt 0.3934 0.7123 0.0000
vt 0.3934 0.4191 0.0000
vt 0.4712 0.4191 0.0000
vt 0.4712 0.7123 0.0000
vt 0.0813 0.7123 0.0000
vt 0.0034 0.7123 0.0000
vt 0.0034 0.4191 0.0000
vt 0.0813 0.4191 0.0000
vt 0.3837 0.7219 0.0000
vt 0.3837 0.7998 0.0000
vt 0.0910 0.7998 0.0000
vt 0.0910 0.7219 0.0000
vt 0.3749 0.4279 0.0000
vt 0.3749 0.7035 0.0000
vt 0.0998 0.7035 0.0000
vt 0.0998 0.4279 0.0000
vt 0.3837 0.3316 0.0000
vt 0.3837 0.4095 0.0000
vt 0.0910 0.4095 0.0000
vt 0.0910 0.3316 0.0000
vt 0.3734 0.3212 0.0000
vt 0.3734 0.0487 0.0000
vt 0.3837 0.0384 0.0000
vt 0.0910 0.0384 0.0000
vt 0.1013 0.0487 0.0000
vt 0.1013 0.3212 0.0000
# 26 texture coords

o Piston_Stationary
g Piston_Stationary
usemtl 01___Default
s 1
f 1/1/1 2/2/2 3/3/3 4/4/4 
f 5/5/5 6/6/6 7/7/7 8/8/8 
s 2
f 1/9/1 4/10/4 6/11/6 5/12/5 
s 1
f 9/13/9 10/14/10 11/15/11 12/16/12 
s 2
f 3/17/3 2/18/2 8/19/8 7/20/7 
s 4
f 3/17/3 13/21/13 14/22/14 4/23/4 
f 6/24/6 15/25/15 16/26/16 7/20/7 
s 8
f 4/23/4 14/22/14 15/25/15 6/24/6 
s 32
f 7/20/7 16/26/16 13/21/13 3/17/3 
s 4
f 1/1/1 10/14/10 9/13/9 2/2/2 
f 8/8/8 12/16/12 11/15/11 5/5/5 
s 8
f 5/12/5 11/15/11 10/14/10 1/9/1 
f 2/18/2 9/13/9 12/16/12 8/19/8 
s off
f 13/21/13 16/26/16 15/25/15 14/22/14 
# 14 polygons

