# 3ds Max Wavefront OBJ Exporter v0.97b - (c)2007 guruware
# File Created: 11.10.2018 13:31:50

mtllib wal_plane_01l.mtl

#
# object wal_plane_01l
#

v  0.0000 -0.0000 200.0000
v  0.0000 -0.0000 0.0000
v  200.0000 -0.0000 0.0000
v  200.0000 -0.0000 200.0000
# 4 vertices

vn 0.0000 -1.0000 -0.0000
# 1 vertex normals

vt 0.0062 2.0024 0.0000
vt 0.0062 0.0024 1.0000
vt 2.0062 0.0024 1.0000
vt 2.0062 2.0024 0.0000
# 4 texture coords

o wal_plane_01l
g wal_plane_01l
usemtl Material__25
s 1
f 1/1/1 2/2/1 3/3/1 4/4/1 
# 1 polygons

